<svg width="44" height="45" viewBox="0 0 44 45" fill="none" xmlns="http://www.w3.org/2000/svg">
<path d="M15.125 15.6245C15.125 15.2598 15.2699 14.9101 15.5277 14.6522C15.7856 14.3944 16.1353 14.2495 16.5 14.2495H29.3333C29.698 14.2495 30.0477 14.3944 30.3056 14.6522C30.5635 14.9101 30.7083 15.2598 30.7083 15.6245C30.7083 15.9892 30.5635 16.3389 30.3056 16.5968C30.0477 16.8546 29.698 16.9995 29.3333 16.9995H16.5C16.1353 16.9995 15.7856 16.8546 15.5277 16.5968C15.2699 16.3389 15.125 15.9892 15.125 15.6245ZM16.5 19.7495C16.1353 19.7495 15.7856 19.8944 15.5277 20.1522C15.2699 20.4101 15.125 20.7598 15.125 21.1245C15.125 21.4892 15.2699 21.8389 15.5277 22.0968C15.7856 22.3546 16.1353 22.4995 16.5 22.4995H25.6667C26.0313 22.4995 26.3811 22.3546 26.6389 22.0968C26.8968 21.8389 27.0417 21.4892 27.0417 21.1245C27.0417 20.7598 26.8968 20.4101 26.6389 20.1522C26.3811 19.8944 26.0313 19.7495 25.6667 19.7495H16.5Z" fill="#2A2C2C"/>
<path fill-rule="evenodd" clip-rule="evenodd" d="M15.5833 6.9165C13.2737 6.9165 11.0587 7.83399 9.42561 9.46712C7.79248 11.1002 6.875 13.3152 6.875 15.6248V33.9582C6.875 35.7815 7.59933 37.5302 8.88864 38.8195C10.178 40.1088 11.9266 40.8332 13.75 40.8332H33.9167C34.7676 40.8332 35.5836 40.4952 36.1853 39.8935C36.787 39.2918 37.125 38.4757 37.125 37.6248V10.1248C37.125 9.27393 36.787 8.45788 36.1853 7.8562C35.5836 7.25452 34.7676 6.9165 33.9167 6.9165H15.5833ZM34.375 27.0832V10.1248C34.375 10.0033 34.3267 9.8867 34.2408 9.80075C34.1548 9.71479 34.0382 9.6665 33.9167 9.6665H15.5833C14.0031 9.6665 12.4876 10.2943 11.3702 11.4117C10.2528 12.5291 9.625 14.0446 9.625 15.6248V28.4582C10.8138 27.5633 12.262 27.0805 13.75 27.0832H34.375ZM34.375 29.8332H13.75C12.656 29.8332 11.6068 30.2678 10.8332 31.0414C10.0596 31.8149 9.625 32.8642 9.625 33.9582C9.625 35.0522 10.0596 36.1014 10.8332 36.875C11.6068 37.6486 12.656 38.0832 13.75 38.0832H33.9167C34.0382 38.0832 34.1548 38.0349 34.2408 37.9489C34.3267 37.863 34.375 37.7464 34.375 37.6248V29.8332Z" fill="#2A2C2C"/>
</svg>
