<svg width="44" height="44" viewBox="0 0 44 44" fill="none" xmlns="http://www.w3.org/2000/svg">
<path d="M1.83301 36.6669V31.5335C1.83301 30.4947 2.10067 29.5401 2.63601 28.6699C3.17134 27.7997 3.88145 27.1348 4.76634 26.6752C6.66079 25.728 8.58579 25.0179 10.5413 24.5449C12.4969 24.0719 14.483 23.8348 16.4997 23.8335C18.5163 23.8323 20.5025 24.0694 22.458 24.5449C24.4136 25.0203 26.3386 25.7304 28.233 26.6752C29.1191 27.1335 29.8298 27.7984 30.3652 28.6699C30.9005 29.5413 31.1676 30.4959 31.1663 31.5335V36.6669H1.83301ZM34.833 36.6669V31.1669C34.833 29.8224 34.459 28.5312 33.711 27.293C32.963 26.0549 31.9009 24.9934 30.5247 24.1085C32.083 24.2919 33.5497 24.6054 34.9247 25.049C36.2997 25.4927 37.583 26.0348 38.7747 26.6752C39.8747 27.2863 40.7149 27.9659 41.2955 28.7139C41.8761 29.4619 42.1663 30.2795 42.1663 31.1669V36.6669H34.833ZM16.4997 22.0002C14.483 22.0002 12.7566 21.2822 11.3205 19.846C9.8844 18.4099 9.16634 16.6835 9.16634 14.6669C9.16634 12.6502 9.8844 10.9238 11.3205 9.48771C12.7566 8.0516 14.483 7.33354 16.4997 7.33354C18.5163 7.33354 20.2427 8.0516 21.6788 9.48771C23.115 10.9238 23.833 12.6502 23.833 14.6669C23.833 16.6835 23.115 18.4099 21.6788 19.846C20.2427 21.2822 18.5163 22.0002 16.4997 22.0002ZM34.833 14.6669C34.833 16.6835 34.115 18.4099 32.6788 19.846C31.2427 21.2822 29.5163 22.0002 27.4997 22.0002C27.1636 22.0002 26.7358 21.9623 26.2163 21.8865C25.6969 21.8108 25.2691 21.7264 24.933 21.6335C25.758 20.6558 26.3923 19.571 26.836 18.3794C27.2797 17.1877 27.5009 15.9502 27.4997 14.6669C27.4985 13.3835 27.2772 12.146 26.836 10.9544C26.3948 9.76271 25.7605 8.67799 24.933 7.70021C25.3608 7.54743 25.7886 7.44782 26.2163 7.40138C26.6441 7.35493 27.0719 7.33232 27.4997 7.33354C29.5163 7.33354 31.2427 8.0516 32.6788 9.48771C34.115 10.9238 34.833 12.6502 34.833 14.6669ZM5.49967 33.0002H27.4997V31.5335C27.4997 31.1974 27.416 30.8919 27.2485 30.6169C27.0811 30.3419 26.8592 30.128 26.583 29.9752C24.933 29.1502 23.2677 28.5318 21.5872 28.1199C19.9066 27.708 18.2108 27.5014 16.4997 27.5002C14.7886 27.499 13.0927 27.7055 11.4122 28.1199C9.73162 28.5342 8.06634 29.1527 6.41634 29.9752C6.14134 30.128 5.91951 30.3419 5.75084 30.6169C5.58217 30.8919 5.49845 31.1974 5.49967 31.5335V33.0002ZM16.4997 18.3335C17.508 18.3335 18.3715 17.9748 19.0902 17.2574C19.8088 16.5399 20.1676 15.6764 20.1663 14.6669C20.1651 13.6573 19.8064 12.7944 19.0902 12.0782C18.374 11.362 17.5105 11.0027 16.4997 11.0002C15.4889 10.9978 14.626 11.3571 13.911 12.0782C13.196 12.7993 12.8367 13.6622 12.833 14.6669C12.8293 15.6715 13.1887 16.535 13.911 17.2574C14.6333 17.9797 15.4962 18.3384 16.4997 18.3335Z" fill="#2A2C2C"/>
</svg>
