<svg width="44" height="45" viewBox="0 0 44 45" fill="none" xmlns="http://www.w3.org/2000/svg">
<path d="M28.875 4.65918L27.973 5.6478C25.9531 7.87118 24.288 8.86531 22.902 9.51568C21.516 10.1647 20.3514 10.3586 19.2074 11.2344C17.9877 12.1694 16.2154 13.9624 15.4688 17.1634C13.8682 17.5127 12.6968 18.1259 11.7728 18.9248C10.8598 19.7141 10.1723 20.6119 9.32525 21.5896C9.31838 21.6006 9.32938 21.6212 9.32525 21.6322C8.10975 23.0292 7.04688 24.5334 4.98438 25.3282L4.125 25.6719V40.3666H30.3366C31.8395 40.2854 32.8818 39.2446 33.5156 38.2174C34.1481 37.1917 34.4987 36.0807 34.6761 35.1677C35.1326 32.8412 35.9645 26.1436 35.9645 26.1436L36.0085 26.0157V25.8864C35.9645 24.9569 35.5823 24.1677 35.1051 23.4362L36.652 18.8396L39.1022 15.1436L39.7897 14.1549L38.8864 13.3396L29.8636 5.51855L28.875 4.65918ZM28.9616 8.44043L36.1364 14.6719L34.2458 17.4632L34.1179 17.5938L34.0739 17.8083L32.8281 21.5029C32.1778 21.2348 31.5081 21.0464 30.7656 21.0739H30.679L22 21.1166H20.625V26.4447C20.4325 27.9434 19.5993 28.5237 18.5625 28.9376C18.2188 29.0764 18.1761 29.0008 17.875 29.0654V21.0753C17.6495 15.9782 19.4645 14.5111 20.8835 13.4262C21.2754 13.1251 22.4235 12.7772 24.0625 12.0086C25.432 11.3637 27.1342 10.2073 28.9616 8.44043ZM15.2116 20.2572C15.2061 20.5693 15.1085 20.7893 15.125 21.1166V32.1166H16.5C16.5 32.1166 17.9712 32.1001 19.5511 31.4717C21.131 30.8433 23.0367 29.3721 23.375 26.7884V23.8666L30.7656 23.8239H30.8083C31.412 23.7901 32.0045 23.9973 32.4557 24.4C32.9068 24.8027 33.1797 25.368 33.2145 25.9717C33.209 25.9937 33.1457 26.5038 33.1292 26.6166H27.5V29.3666H32.7855C32.6397 30.4294 32.5064 31.0963 32.3551 32.1166H27.5V34.8666H31.9261C31.7637 35.5318 31.5028 36.169 31.152 36.7572C30.7766 37.3691 30.4535 37.6001 30.1647 37.6166H6.875V27.3467C9.10388 26.1642 10.4899 24.4633 11.3864 23.4376C12.3159 22.3733 12.9539 21.5676 13.5781 21.0313C13.9865 20.6821 14.6259 20.4827 15.2116 20.2572Z" fill="#2A2C2C"/>
</svg>
