<svg xmlns="http://www.w3.org/2000/svg" version="1.1" xmlns:xlink="http://www.w3.org/1999/xlink" xmlns:svgjs="http://svgjs.dev/svgjs" width="1000" height="1000"><style>
    #light-icon {
      display: inline;
    }
    #dark-icon {
      display: none;
    }

    @media (prefers-color-scheme: dark) {
      #light-icon {
        display: none;
      }
      #dark-icon {
        display: inline;
      }
    }
  </style><g id="light-icon"><svg xmlns="http://www.w3.org/2000/svg" version="1.1" xmlns:xlink="http://www.w3.org/1999/xlink" xmlns:svgjs="http://svgjs.dev/svgjs" width="1000" height="1000"><g clip-path="url(#SvgjsClipPath1011)"><rect width="1000" height="1000" fill="#ffffff"></rect><g transform="matrix(28,0,0,28,150,150)"><svg xmlns="http://www.w3.org/2000/svg" version="1.1" xmlns:xlink="http://www.w3.org/1999/xlink" xmlns:svgjs="http://svgjs.dev/svgjs" width="25" height="25"><svg width="25" height="25" viewBox="0 0 25 25" fill="none" xmlns="http://www.w3.org/2000/svg">
<circle cx="12.084" cy="12.5728" r="11.5" fill="white" stroke="#0C2953"></circle>
<path d="M10.1679 10.9405H11.8545V15.5372C11.8545 16.1531 11.7339 16.6877 11.4935 17.1411C11.2528 17.5908 10.9086 17.9403 10.4614 18.1897C10.0138 18.4353 9.47992 18.5581 8.8594 18.5581C8.23511 18.5581 7.69746 18.4353 7.24646 18.1897C6.79511 17.9403 6.44889 17.5908 6.20849 17.1411C5.97152 16.6877 5.85303 16.1531 5.85303 15.5372V10.9405H7.53411V15.4465C7.53411 15.7865 7.58651 16.0737 7.69199 16.308C7.80089 16.5422 7.95499 16.7198 8.15429 16.8408C8.3536 16.9579 8.58886 17.0165 8.8594 17.0165C9.12651 17.0165 9.35766 16.9579 9.5532 16.8408C9.74874 16.7198 9.89907 16.5422 10.0045 16.308C10.1134 16.0737 10.1679 15.7865 10.1679 15.4465V10.9405ZM13.0585 10.9405H15.7656C16.243 10.9405 16.6738 11.0255 17.0573 11.1956C17.4409 11.3618 17.7456 11.6169 17.971 11.9608C18.2004 12.3008 18.3151 12.7278 18.3151 13.2417C18.3151 13.7518 18.2004 14.1863 17.971 14.5453C17.7456 14.9005 17.4409 15.1725 17.0573 15.3615C16.6738 15.5466 16.243 15.6392 15.7656 15.6392H14.7447V18.4221H13.0585V10.9405ZM14.7447 14.3016H15.2975C15.5269 14.3016 15.732 14.2675 15.9125 14.1996C16.0964 14.1315 16.243 14.0238 16.3522 13.8765C16.4614 13.7253 16.5159 13.527 16.5159 13.2813C16.5159 13.032 16.4614 12.8355 16.3522 12.6919C16.243 12.5445 16.0964 12.4387 15.9125 12.3745C15.732 12.3103 15.5269 12.2781 15.2975 12.2781H14.7447V14.3016Z" fill="#0C2953"></path>
<path d="M17.7021 5.88991C17.7209 5.76613 17.6364 5.65049 17.5131 5.63164L15.5056 5.32435C15.3827 5.30549 15.2676 5.39055 15.2488 5.51433C15.23 5.63812 15.3145 5.75375 15.4378 5.7726L17.2223 6.04575L16.9504 7.83879C16.9316 7.96255 17.0162 8.0782 17.1395 8.09703C17.2627 8.1159 17.3778 8.03084 17.3963 7.90707L17.7021 5.88991ZM6.46289 9.04134C8.80628 9.16916 10.6247 9.14075 12.3445 8.71557C14.0684 8.28949 15.6772 7.46922 17.6127 6.03839L17.3453 5.67314C15.4412 7.08078 13.8862 7.86763 12.2369 8.27528C10.5836 8.6839 8.81997 8.71581 6.4872 8.58858L6.46289 9.04134Z" fill="#0C2953"></path>
</svg></svg></g></g><defs><clipPath id="SvgjsClipPath1011"><rect width="1000" height="1000" x="0" y="0" rx="350" ry="350"></rect></clipPath></defs></svg></g><g id="dark-icon"><svg xmlns="http://www.w3.org/2000/svg" version="1.1" xmlns:xlink="http://www.w3.org/1999/xlink" xmlns:svgjs="http://svgjs.dev/svgjs" width="1000" height="1000"><g><g transform="matrix(40,0,0,40,0,0)"><svg xmlns="http://www.w3.org/2000/svg" version="1.1" xmlns:xlink="http://www.w3.org/1999/xlink" xmlns:svgjs="http://svgjs.dev/svgjs" width="25" height="25"><svg width="25" height="25" viewBox="0 0 25 25" fill="none" xmlns="http://www.w3.org/2000/svg">
<circle cx="12.084" cy="12.5728" r="11.5" fill="white" stroke="#0C2953"></circle>
<path d="M10.1679 10.9405H11.8545V15.5372C11.8545 16.1531 11.7339 16.6877 11.4935 17.1411C11.2528 17.5908 10.9086 17.9403 10.4614 18.1897C10.0138 18.4353 9.47992 18.5581 8.8594 18.5581C8.23511 18.5581 7.69746 18.4353 7.24646 18.1897C6.79511 17.9403 6.44889 17.5908 6.20849 17.1411C5.97152 16.6877 5.85303 16.1531 5.85303 15.5372V10.9405H7.53411V15.4465C7.53411 15.7865 7.58651 16.0737 7.69199 16.308C7.80089 16.5422 7.95499 16.7198 8.15429 16.8408C8.3536 16.9579 8.58886 17.0165 8.8594 17.0165C9.12651 17.0165 9.35766 16.9579 9.5532 16.8408C9.74874 16.7198 9.89907 16.5422 10.0045 16.308C10.1134 16.0737 10.1679 15.7865 10.1679 15.4465V10.9405ZM13.0585 10.9405H15.7656C16.243 10.9405 16.6738 11.0255 17.0573 11.1956C17.4409 11.3618 17.7456 11.6169 17.971 11.9608C18.2004 12.3008 18.3151 12.7278 18.3151 13.2417C18.3151 13.7518 18.2004 14.1863 17.971 14.5453C17.7456 14.9005 17.4409 15.1725 17.0573 15.3615C16.6738 15.5466 16.243 15.6392 15.7656 15.6392H14.7447V18.4221H13.0585V10.9405ZM14.7447 14.3016H15.2975C15.5269 14.3016 15.732 14.2675 15.9125 14.1996C16.0964 14.1315 16.243 14.0238 16.3522 13.8765C16.4614 13.7253 16.5159 13.527 16.5159 13.2813C16.5159 13.032 16.4614 12.8355 16.3522 12.6919C16.243 12.5445 16.0964 12.4387 15.9125 12.3745C15.732 12.3103 15.5269 12.2781 15.2975 12.2781H14.7447V14.3016Z" fill="#0C2953"></path>
<path d="M17.7021 5.88991C17.7209 5.76613 17.6364 5.65049 17.5131 5.63164L15.5056 5.32435C15.3827 5.30549 15.2676 5.39055 15.2488 5.51433C15.23 5.63812 15.3145 5.75375 15.4378 5.7726L17.2223 6.04575L16.9504 7.83879C16.9316 7.96255 17.0162 8.0782 17.1395 8.09703C17.2627 8.1159 17.3778 8.03084 17.3963 7.90707L17.7021 5.88991ZM6.46289 9.04134C8.80628 9.16916 10.6247 9.14075 12.3445 8.71557C14.0684 8.28949 15.6772 7.46922 17.6127 6.03839L17.3453 5.67314C15.4412 7.08078 13.8862 7.86763 12.2369 8.27528C10.5836 8.6839 8.81997 8.71581 6.4872 8.58858L6.46289 9.04134Z" fill="#0C2953"></path>
</svg></svg></g></g></svg></g></svg>